<?xml version="1.0" encoding="utf-8"?>
<!-- Generator: Adobe Illustrator 24.0.3, SVG Export Plug-In . SVG Version: 6.00 Build 0)  -->
<svg version="1.1" id="Layer_1" xmlns="http://www.w3.org/2000/svg" xmlns:xlink="http://www.w3.org/1999/xlink" x="0px" y="0px"
	 viewBox="0 0 100 101.8" style="enable-background:new 0 0 100 101.8;" xml:space="preserve">
<style type="text/css">
	.st0{fill:#013224;stroke:#FFFFFF;stroke-width:2;stroke-miterlimit:10;}
</style>
<title>Artboard 611</title>
<path class="st0" d="M13.8,25.2c1.7-1.4,4.4-1.2,5.8,0.4c1.2,1.4,1.2,3.8,0,5.2L14.2,36h19.2c2.3,0,4.2,1.8,4.2,4s-1.9,4-4.2,4H14.2
	l5.4,5.2c1.7,1.4,1.9,4,0.4,5.6c-1.5,1.6-4.2,1.8-5.8,0.4C14,55,13.8,55,13.8,54.8l-12.5-12c-1.7-1.6-1.7-4,0-5.6L13.8,25.2z"/>
<path class="st0" d="M100,67c0,7-4.4,13.4-10.8,16.2L51.9,99.6c-0.6,0.2-1,0.4-1.7,0.4c-2.3,0-4.2-1.8-4.2-4V80h-4.2
	c-6.9,0-12.5-5.4-12.5-12v-8c0-2.2,1.9-4,4.2-4c2.3,0,4.2,1.8,4.2,4v8c0,2.2,1.9,4,4.2,4H46V24c0-1.6,1-3,2.5-3.6L76.7,8h-35
	c-2.3,0-4.2,1.8-4.2,4v8c0,2.2-1.9,4-4.2,4c-2.3,0-4.2-1.8-4.2-4v-8c0-6.6,5.6-12,12.5-12h45.8C94.4,0,100,5.4,100,12V67z M91.7,12
	c0-0.6-0.2-1.2-0.4-1.6L54.2,26.6v63.2L85.6,76c3.5-1.6,6-5,6-9V12z"/>
</svg>
